<svg id="Laag_1" data-name="Laag 1" xmlns="http://www.w3.org/2000/svg" viewBox="0 0 430.57 237.44"><defs><style>.cls-1{fill:#1d1d1b;}.cls-2{fill:#ba74ae;}.cls-3{fill:#7bc7bf;}</style></defs><title>logo-header</title><path class="cls-1" d="M184.5,234.87A19.49,19.49,0,1,0,165,254.48a19.5,19.5,0,0,0,19.5-19.61m0-29h10.88v58H184.5v-6.71c-5.44,4.56-12.28,8-19.49,8a30.25,30.25,0,1,1,0-60.5c7.21,0,14.05,3.42,19.49,8Z" transform="translate(-20.54 -27.72)"/><path class="cls-1" d="M281.74,234.87a19.49,19.49,0,1,0-19.49,19.61,19.5,19.5,0,0,0,19.49-19.61m0-29h10.88v58H281.74v-6.71c-5.44,4.56-12.28,8-19.49,8a30.25,30.25,0,1,1,0-60.5c7.21,0,14.05,3.42,19.49,8Z" transform="translate(-20.54 -27.72)"/><path class="cls-1" d="M440.23,234.87a19.49,19.49,0,1,0-19.49,19.62,19.5,19.5,0,0,0,19.49-19.62m0-63.91h10.88v92.89H440.23v-6.71c-5.44,4.56-12.28,8-19.49,8a30.25,30.25,0,0,1,0-60.5c7.21,0,14,3.42,19.49,8Z" transform="translate(-20.54 -27.72)"/><path class="cls-1" d="M344.52,257.14v-23c0-10.47,8.27-18.36,18.63-18.82l2.44-10.61H364a30.61,30.61,0,0,0-19.49,7.58v-6.31H333.64v58h10.88Z" transform="translate(-20.54 -27.72)"/><rect class="cls-2" x="21.66" y="143.37" width="38.92" height="9.95"/><polygon class="cls-1" points="71.57 178.16 71.5 178.53 63.37 221.48 47.06 199.44 41.13 199.44 41.12 199.44 35.19 199.44 18.87 221.48 10.74 178.53 10.68 178.16 0 178.16 10.88 236.14 21.66 236.14 41.12 209.85 41.12 209.84 41.13 209.85 60.58 236.14 71.36 236.14 82.25 178.16 71.57 178.16"/><polygon class="cls-3" points="48.57 4.25 46.58 4.25 45.11 11.96 42.2 6.85 40.04 6.85 37.13 11.96 35.67 4.25 33.67 4.25 35.64 14.7 37.73 14.7 41.12 8.75 44.51 14.7 46.6 14.7 48.57 4.25"/><path class="cls-3" d="M79.6,31.75a5.45,5.45,0,1,0,3.91,1.61,5.45,5.45,0,0,0-3.91-1.61m0,9a3.5,3.5,0,1,1,3.53-3.51,3.5,3.5,0,0,1-3.53,3.51" transform="translate(-20.54 -27.72)"/><path class="cls-3" d="M95.83,31.75a5.45,5.45,0,1,0,3.9,1.61,5.45,5.45,0,0,0-3.9-1.61m0,9a3.5,3.5,0,1,1,3.53-3.51,3.5,3.5,0,0,1-3.53,3.51" transform="translate(-20.54 -27.72)"/><path class="cls-3" d="M112.06,31.77A5.22,5.22,0,0,0,109,33V32h-2V42.42h2V36.81a3.1,3.1,0,0,1,6.19-.35,2,2,0,0,1,0,.35v5.61h2V36.81a5,5,0,0,0-5-5h-.06" transform="translate(-20.54 -27.72)"/><path class="cls-3" d="M128.08,40.73a3.54,3.54,0,1,1,2.84-5.61L132.5,34a4.77,4.77,0,0,0-.55-.64,5.39,5.39,0,0,0-3.87-1.57A5.45,5.45,0,1,0,132,41.07a5.86,5.86,0,0,0,.57-.66L131,39.25a3.52,3.52,0,0,1-2.84,1.48" transform="translate(-20.54 -27.72)"/><path class="cls-3" d="M142.77,31.75a5.46,5.46,0,0,0,0,10.92h0a5.46,5.46,0,1,0,0-10.92m0,9a3.5,3.5,0,1,1,3.53-3.51,3.5,3.5,0,0,1-3.53,3.51" transform="translate(-20.54 -27.72)"/><path class="cls-3" d="M159.82,31.75a6.46,6.46,0,0,0-3.83,1.3V32h-2V42.42h2V36.85a3.25,3.25,0,0,1,3.35-3.14Z" transform="translate(-20.54 -27.72)"/><path class="cls-3" d="M170.67,31.75a5.64,5.64,0,0,0-3.53,1.43V32h-2V48.39h2V41.21a5.7,5.7,0,0,0,3.53,1.44,5.45,5.45,0,1,0,0-10.9h0m0,9a3.54,3.54,0,1,1,3.53-3.55h0a3.54,3.54,0,0,1-3.53,3.54" transform="translate(-20.54 -27.72)"/><path class="cls-3" d="M186.69,31.75a5.46,5.46,0,0,0,0,10.92h0a5.46,5.46,0,1,0,0-10.92m0,9a3.5,3.5,0,1,1,3.52-3.51,3.5,3.5,0,0,1-3.52,3.51" transform="translate(-20.54 -27.72)"/><path class="cls-3" d="M203.74,31.75a6.46,6.46,0,0,0-3.83,1.3V32h-2V42.42h2V36.85a3.25,3.25,0,0,1,3.35-3.14Z" transform="translate(-20.54 -27.72)"/><path class="cls-3" d="M219,32h-2v1.21a5.64,5.64,0,0,0-3.53-1.43,5.45,5.45,0,1,0,0,10.9A5.6,5.6,0,0,0,217,41.21v1.21h2Zm-5.51,8.76A3.54,3.54,0,1,1,217,37.19h0a3.54,3.54,0,0,1-3.53,3.53" transform="translate(-20.54 -27.72)"/><path class="cls-3" d="M230.29,40.55a1.68,1.68,0,0,1-1.56-1.65V33.84H232V32h-3.23V28h-2v4H225.2v1.87h1.56V39a3.46,3.46,0,0,0,3.45,3.47h2.35l-.5-1.87Z" transform="translate(-20.54 -27.72)"/><path class="cls-3" d="M240.12,30.29A1.3,1.3,0,0,0,241.4,29a1.28,1.28,0,0,0-1.28-1.28A1.29,1.29,0,0,0,238.81,29h0a1.31,1.31,0,0,0,1.31,1.3" transform="translate(-20.54 -27.72)"/><rect class="cls-3" x="218.59" y="4.25" width="1.97" height="10.45"/><path class="cls-3" d="M255.72,33.48a4.81,4.81,0,0,0-6.79-.34c-.12.11-.23.22-.34.34A5.51,5.51,0,0,0,247.28,36a6.34,6.34,0,0,0-.13,1.23,3.84,3.84,0,0,0,0,.48A5.4,5.4,0,0,0,248.59,41a4.7,4.7,0,0,0,3.56,1.59,5.67,5.67,0,0,0,4.17-1.94l-1.65-1a4.05,4.05,0,0,1-2.57,1.1,3.34,3.34,0,0,1-3-3.06h8.09A5.64,5.64,0,0,0,257,36a5.31,5.31,0,0,0-1.31-2.53M249.21,36h0a3.24,3.24,0,0,1,2.92-2.26A3.18,3.18,0,0,1,255.06,36h-5.85Z" transform="translate(-20.54 -27.72)"/><path class="cls-1" d="M389.58,116.78v31.14H378.69V116.78a17.09,17.09,0,1,0-34.18,0v31.16H333.63v-58h10.88v5.57c4.94-3.8,10.89-6.71,17.09-6.71a27.66,27.66,0,0,1,28,28" transform="translate(-20.54 -27.72)"/><path class="cls-1" d="M282,118.66a19.53,19.53,0,1,0,0,.2v-.2m11,0a30.57,30.57,0,1,1-30.61-30.47h0A30.47,30.47,0,0,1,293,118.54v.12" transform="translate(-20.54 -27.72)"/><path class="cls-1" d="M184.78,118.66a19.53,19.53,0,1,0,0,.2v-.2m11,0a30.57,30.57,0,1,1-30.61-30.47h0a30.47,30.47,0,0,1,30.59,30.35v.12" transform="translate(-20.54 -27.72)"/><polygon class="cls-1" points="71.57 62.23 63.37 105.55 47.06 83.51 41.13 83.51 41.12 83.51 35.19 83.51 18.87 105.55 10.68 62.23 0 62.23 10.88 120.2 21.66 120.2 41.12 93.9 60.58 120.2 71.36 120.2 82.25 62.23 71.57 62.23"/></svg>